<?xml version="1.0" standalone="no"?><!DOCTYPE svg PUBLIC "-//W3C//DTD SVG 1.1//EN" "http://www.w3.org/Graphics/SVG/1.1/DTD/svg11.dtd"><svg t="1619177980106" class="icon" viewBox="0 0 1024 1024" version="1.1" xmlns="http://www.w3.org/2000/svg" p-id="2975" xmlns:xlink="http://www.w3.org/1999/xlink" width="200" height="200"><defs><style type="text/css"></style></defs><path d="M551.6 1024h-79.2c-55.2 0-110-14.4-158-41.6-25.2-14.4-48.4-32-68.8-52.4-20.8-20.8-38.8-44.8-53.2-70.8-26.8-47.6-40.8-101.6-40.8-156.4 0-4 0-8.4 0.4-13.6l0.4-4c0-3.6 0.4-7.2 0.8-10.4l0.4-3.2c0.4-5.2 1.2-9.6 1.6-14l0.4-1.6c9.6-64.4 38-123.6 82-171.6l116-125.2h317.6l116 125.2c44.4 47.6 72.8 107.2 82 171.6l0.4 1.6c0.4 4 1.2 8.8 1.6 14l0.4 3.2c0.4 3.6 0.4 7.2 0.8 10.4l0.4 4c0.4 5.2 0.4 9.6 0.4 13.6v0.4c0 54-14 107.6-40 154.8-14.8 26.4-32.8 50.8-54 72-21.2 21.2-45.2 39.2-71.2 53.6-44 24.4-92.4 38-142.8 40-5.2 0.4-9.6 0.4-13.6 0.4z m-384.4-363.2c-0.4 3.6-0.8 7.6-1.2 12l-0.4 3.2c-0.4 3.2-0.4 6.8-0.8 10v3.6c-0.4 5.2-0.4 9.2-0.4 13.2 0 52.4 13.6 104.4 39.2 150 14 24.8 31.2 47.6 51.2 68 19.6 19.6 42 36.4 66.4 50.4 46 26 98.4 40 151.6 40H552c4 0 8 0 12-0.4 48.8-2 94.8-14.8 137.2-38.4 25.2-14 48.4-31.2 68.4-51.6 20.4-20.4 38-43.6 52-69.2 25.2-45.2 38.4-96.8 38.4-148.4v-0.4c0-4 0-8-0.4-12.8v-3.6c0-3.2-0.4-6.8-0.8-10l-0.4-3.2c-0.4-4.4-0.8-8.4-1.2-12.4l-0.4-1.2c-8.8-62.4-36.4-120-79.2-166l-112.4-121.2H358.8l-112.4 121.2c-42.8 46.4-70 103.6-79.2 166v1.2z" fill="#4A555F" p-id="2976"></path><path d="M844.4 690.4l-0.4-3.6c0-3.2-0.4-6.4-0.8-9.6l-0.4-2.8c-0.4-3.2-0.8-6.4-0.8-9.2l-0.4-3.6c-8.4-59.6-34.4-114-75.2-158l-108-116.4H365.2l-108 116.4c-40.8 44-66.8 98.8-75.2 158l-0.4 2.4c-0.4 3.2-0.8 6.4-1.2 10.4l-0.4 2.8c-0.4 3.2-0.4 6.4-0.8 9.6v3.6c-0.4 4.8-0.4 8.8-0.4 12.4 0 50 12.8 99.2 37.2 142.8 13.2 23.6 29.6 45.6 48.8 64.4 18.8 18.8 40 34.8 63.2 48 44 24.8 93.6 38 144.4 38h79.2c4 0 7.6 0 11.6-0.4 46.4-2 90.4-14 130.4-36.4 24-13.2 46-30 65.2-49.2 19.6-19.6 36-41.6 49.6-65.6 24-43.2 36.4-92 36.4-141.2v-0.8c0-3.2 0-7.2-0.4-12z m-332.8-48.8h5.6c56 0 101.6 45.6 101.6 101.6 0 43.6-26.4 82.8-67.2 99.2h-0.4v52.8H472v-52.8h-0.4c-31.6-12.8-55.2-39.6-63.6-72.4l-6.8-26.4h79.6l6 12c4.8 9.6 14.4 15.6 24.8 15.6 15.2 0 27.6-12.4 27.6-27.6 0-12.4-10-22.4-22.4-22.4h-5.6c-58.8 0-106.4-47.6-106.4-106.4 0-44 26.4-82.8 67.2-99.2h0.4v-52.4h79.2v52.4h0.4c32 12.8 56 40.8 64 74l6.4 26h-79.2l-5.6-12.4c-4.4-10-14.4-16.4-25.2-16.4-15.2 0-27.6 12.4-27.6 27.6-0.4 14.8 11.6 27.2 26.8 27.2z" fill="#E0E0E0" p-id="2977"></path><path d="M654 343.6h-284v-68h283.6v68z m-271.2-12.8h258V288H382.8v42.8zM652.8 253.6H371.2L232.8 0h558l-138 253.6z m-274-12.8h266.8l124.4-228H254.4l124.4 228z" fill="#4A555F" p-id="2978"></path><path d="M387.6 226L279.2 27.6h465.6l-108.4 198.4z" fill="#E0E0E0" p-id="2979"></path><path d="M493.6 873.6V828l-13.6-5.6c-25.6-10.4-44.4-32-51.2-58h39.2c8 16 24.8 27.2 44 27.2 26.8 0 48.8-22 48.8-48.8 0-24-19.6-43.6-43.6-43.6h-5.6c-47.2 0-85.2-38.4-85.2-85.2 0-35.2 21.2-66.4 53.6-79.6l13.6-5.6v-45.6h36.8v45.6l13.6 5.6c26.4 10.4 45.2 32.8 51.2 59.2h-38.8c-7.6-16.8-24.8-28.8-44.4-28.8-26.8 0-48.8 22-48.8 48.8 0 26.8 21.6 48.4 48.4 48.4h5.6c44.4 0 80.4 36 80.4 80.4 0 35.2-21.2 66.4-53.6 79.6l-13.6 5.6v45.6h-36.8z" fill="#FFD552" p-id="2980"></path><path d="M536.8 880h-49.6v-48l-9.6-4c-27.2-10.8-47.6-34-54.8-62.4l-2-8H472l1.6 3.6c7.2 14.8 22 24 38 24 23.6 0 42.4-19.2 42.4-42.4 0-20.4-16.8-37.2-37.2-37.2h-5.6c-50.4 0-91.6-41.2-91.6-91.6 0-37.6 22.8-71.2 57.6-85.2l9.6-4v-47.6h49.6v47.6l9.6 4c27.6 11.2 48.4 34.8 55.2 63.6l2 8h-50.8l-1.6-3.6c-6.8-15.2-22-25.2-38.8-25.2-23.6 0-42.4 19.2-42.4 42.4s18.8 42 42 42h5.6c47.6 0 86.8 38.8 86.8 86.8 0 37.6-22.8 71.2-57.6 85.2l-9.6 4v48z m-36.8-12.8h24v-43.6l17.6-7.2c30.4-12 49.6-41.2 49.6-73.6 0-40.8-33.2-74-74-74h-5.6c-30.4 0-54.8-24.8-54.8-54.8 0-30.4 24.8-55.2 55.2-55.2 20.4 0 38.8 11.2 48.4 28.8h26.4c-7.6-21.2-24-38.4-45.2-47.2l-17.6-7.2v-43.6h-24v43.6l-17.6 7.2c-30.4 12-49.6 41.2-49.6 73.6 0 43.6 35.2 78.8 78.8 78.8h5.6c27.6 0 50 22.4 50 50 0 30.4-24.8 55.2-55.2 55.2-20 0-37.6-10.4-47.6-27.2h-26.4c7.6 20.8 23.6 37.2 44.8 45.6l17.6 7.2v43.6zM376.4 303.2h273.2V316H376.4z" fill="#4A555F" p-id="2981"></path></svg>